<svg width="85" height="30" viewBox="0 0 85 30" fill="none" xmlns="http://www.w3.org/2000/svg">
<path d="M76.8675 9.84932C76.7078 9.25752 76.473 8.73617 76.163 8.28527C75.853 7.82498 75.4725 7.43514 75.0216 7.11575C74.5707 6.79637 74.0541 6.55683 73.4717 6.39713C72.8893 6.22805 72.2505 6.1435 71.5554 6.1435C70.1557 6.1435 68.9439 6.48168 67.92 7.15802C66.9055 7.83437 66.1211 8.82071 65.5669 10.117C65.0126 11.404 64.7355 12.968 64.7355 14.8092C64.7355 16.6598 65.0032 18.2379 65.5387 19.5436C66.0741 20.8494 66.8491 21.8451 67.8636 22.5308C68.8781 23.2166 70.1087 23.5594 71.5554 23.5594C72.8329 23.5594 73.9132 23.3528 74.7962 22.9395C75.6886 22.5167 76.3649 21.9202 76.8252 21.15C77.2855 20.3797 77.5157 19.4732 77.5157 18.4305L78.812 18.5855H71.7949V13.4988H84.2369V17.3173C84.2369 19.9006 83.6873 22.1128 82.5883 23.954C81.4986 25.7951 79.9956 27.2089 78.0793 28.1952C76.1724 29.1816 73.9789 29.6747 71.499 29.6747C68.7466 29.6747 66.3278 29.0782 64.2423 27.8852C62.1569 26.6922 60.5318 24.992 59.367 22.7845C58.2022 20.5675 57.6198 17.9373 57.6198 14.8937C57.6198 12.5265 57.972 10.427 58.6766 8.59526C59.3811 6.7541 60.3627 5.19474 61.6215 3.9172C62.8897 2.63965 64.3551 1.6721 66.0178 1.01454C67.6898 0.356978 69.4887 0.0281982 71.4144 0.0281982C73.0865 0.0281982 74.6412 0.267738 76.0784 0.746818C77.5251 1.2259 78.8026 1.90225 79.9111 2.77586C81.0289 3.64947 81.9354 4.68748 82.6305 5.88988C83.3257 7.09227 83.7578 8.41209 83.9269 9.84932H76.8675Z" fill="white"/>
<path d="M39.8024 29.717C37.7733 29.717 36.0214 29.3553 34.5466 28.632C33.0812 27.9087 31.9539 26.9365 31.1649 25.7153C30.3758 24.4847 29.9813 23.1179 29.9813 21.6149C29.9813 20.5065 30.1973 19.5295 30.6294 18.6841C31.0709 17.8293 31.6768 17.0449 32.4471 16.331C33.2268 15.6077 34.1333 14.8984 35.1666 14.2033L41.2255 10.3284C41.9113 9.89627 42.395 9.44068 42.6769 8.9616C42.9681 8.48252 43.1137 8.00344 43.1137 7.52436C43.1137 7.00771 42.9117 6.53802 42.5078 6.11531C42.1132 5.69259 41.5261 5.48593 40.7465 5.49532C40.2486 5.49532 39.8165 5.59865 39.4501 5.80532C39.0838 6.01198 38.7973 6.28909 38.5906 6.63666C38.3933 6.98423 38.2947 7.37876 38.2947 7.82027C38.2947 8.39328 38.4591 8.98039 38.7879 9.58159C39.1166 10.1828 39.5582 10.8216 40.1124 11.4979C40.676 12.1743 41.3007 12.9211 41.9864 13.7383L55.8093 29.2802H48.7922L37.2238 16.7255C36.5663 15.9928 35.8758 15.1708 35.1525 14.2597C34.4292 13.3485 33.8186 12.3527 33.3207 11.2725C32.8229 10.1828 32.5739 8.99918 32.5739 7.72163C32.5739 6.28439 32.9121 4.98337 33.5884 3.81854C34.2648 2.65372 35.2136 1.72844 36.4347 1.0427C37.6653 0.347568 39.0979 0 40.7324 0C42.3105 0 43.6726 0.324084 44.8186 0.972251C45.9647 1.62042 46.8477 2.47994 47.4677 3.55083C48.0876 4.62171 48.3976 5.79592 48.3976 7.07347C48.3976 8.42616 48.0642 9.67083 47.3972 10.8075C46.7302 11.9347 45.7862 12.9351 44.565 13.8088L38.6329 18.05C38.0035 18.5009 37.5103 18.9847 37.1534 19.5013C36.7964 20.0086 36.6179 20.5628 36.6179 21.164C36.6179 21.784 36.7635 22.3242 37.0547 22.7844C37.3553 23.2447 37.778 23.6064 38.3229 23.8694C38.8677 24.1324 39.5065 24.264 40.2392 24.264C41.2161 24.264 42.1931 24.0338 43.17 23.5735C44.147 23.1038 45.0394 22.4463 45.8472 21.6008C46.6551 20.746 47.3033 19.7362 47.7917 18.5714C48.2802 17.3972 48.5244 16.1102 48.5244 14.7106H54.0761C54.0761 16.439 53.893 18.0453 53.5266 19.5295C53.1602 21.0043 52.6107 22.3289 51.878 23.5031C51.1547 24.6679 50.2576 25.6354 49.1867 26.4057C48.8485 26.5936 48.5197 26.7721 48.2004 26.9412C47.881 27.1103 47.5522 27.2887 47.214 27.4766C46.1056 28.2751 44.9032 28.8481 43.6068 29.1957C42.3199 29.5432 41.0518 29.717 39.8024 29.717Z" fill="white"/>
<path d="M19.2477 9.84932C19.088 9.25752 18.8532 8.73617 18.5432 8.28527C18.2332 7.82498 17.8527 7.43514 17.4018 7.11575C16.951 6.79637 16.4343 6.55683 15.8519 6.39713C15.2695 6.22805 14.6307 6.1435 13.9356 6.1435C12.5359 6.1435 11.3241 6.48168 10.3002 7.15802C9.28568 7.83437 8.50131 8.82071 7.94708 10.117C7.39285 11.404 7.11574 12.968 7.11574 14.8092C7.11574 16.6598 7.38346 18.2379 7.9189 19.5436C8.45434 20.8494 9.22932 21.8451 10.2438 22.5308C11.2584 23.2166 12.4889 23.5594 13.9356 23.5594C15.2131 23.5594 16.2934 23.3528 17.1764 22.9395C18.0688 22.5167 18.7451 21.9202 19.2054 21.15C19.6657 20.3797 19.8959 19.4732 19.8959 18.4305L21.1922 18.5855H14.1751V13.4988H26.6171V17.3173C26.6171 19.9006 26.0675 22.1128 24.9685 23.954C23.8788 25.7951 22.3758 27.2089 20.4595 28.1952C18.5526 29.1816 16.3591 29.6747 13.8792 29.6747C11.1269 29.6747 8.70797 29.0782 6.62257 27.8852C4.53716 26.6922 2.91205 24.992 1.74723 22.7845C0.58241 20.5675 0 17.9373 0 14.8937C0 12.5265 0.352264 10.427 1.05679 8.59526C1.76132 6.7541 2.74296 5.19474 4.00172 3.9172C5.26987 2.63965 6.73529 1.6721 8.39798 1.01454C10.0701 0.356978 11.869 0.0281982 13.7947 0.0281982C15.4667 0.0281982 17.0214 0.267738 18.4586 0.746818C19.9053 1.2259 21.1828 1.90225 22.2913 2.77586C23.4091 3.64947 24.3156 4.68748 25.0108 5.88988C25.7059 7.09227 26.138 8.41209 26.3071 9.84932H19.2477Z" fill="white"/>
</svg>
